<?xml version="1.0" encoding="UTF-8"?>
<svg width="174.71mm" height="71.015mm" version="1.1" viewBox="0 0 174.71 71.015" xmlns="http://www.w3.org/2000/svg" xmlns:cc="http://creativecommons.org/ns#" xmlns:dc="http://purl.org/dc/elements/1.1/" xmlns:rdf="http://www.w3.org/1999/02/22-rdf-syntax-ns#">
 <metadata>
  <rdf:RDF>
   <cc:Work rdf:about="">
    <dc:format>image/svg+xml</dc:format>
    <dc:type rdf:resource="http://purl.org/dc/dcmitype/StillImage"/>
    <dc:title/>
   </cc:Work>
  </rdf:RDF>
 </metadata>
 <g transform="translate(-11.156 -112.96)">
  <path transform="scale(.26458)" d="m224.21 427.17c-79.75 0-146.2 0.33765-147.67 0.75-3.5675 1.0006-8.5333 5.2806-10.469 9.0234-1.5714 3.0387-4.6897 25.069-15.814 111.73-3.0008 23.375-6.1715 47.827-7.0469 54.34-1.2728 9.4693-1.3549 12.574-0.40625 15.5 1.8148 5.5974 4.8001 9.2055 9.3105 11.254 3.9443 1.7912 10.408 1.8621 171.39 1.8848 89.905 0.0118 131.31 8e-3 151.19-0.3125 21.505 0.27319 63.243 0.3007 147.01 0.3125 165.88 0.0218 167.32 5e-3 171.25-1.998 4.3383-2.2132 8.4074-7.6818 9.4394-12.686 0.3636-1.7629-0.26265-9.8629-1.3926-18-1.1299-8.1371-3.8775-29.195-6.1055-46.795-4.4493-35.148-13.604-104.77-14.572-110.83-0.68678-4.2984-5.0741-9.8764-9.8066-12.469-2.8781-1.5764-13.551-1.6992-148.1-1.6992-79.75 0-146.2 0.33765-147.67 0.75-211.45-1.5266 66.203-0.79259-150.53-0.75zm1.0684 37.574c21.64 0.27703 43.149 4.7057 60.832 13.441 21.644 10.693 31.926 20.486 37.121 35.355 4.8339 13.836 4.228 23.654-2.2598 36.629-4.2934 8.5862-15.712 20.103-25.848 26.07-12.33 7.2594-27.52 12.849-43.414 15.977-13.156 2.5886-40.701 2.7834-54.342 0.38281-26.868-4.7284-51.32-16.64-64.221-31.285-9.7454-11.063-15.116-27.614-12.699-39.135 2.9883-14.247 13.914-28.867 28.578-38.244 20.394-13.041 48.43-19.548 76.252-19.191zm298.2 0c21.64 0.27703 43.149 4.7057 60.832 13.441 21.644 10.693 31.926 20.486 37.121 35.355 4.8339 13.836 4.228 23.654-2.2598 36.629-4.2934 8.5862-15.714 20.103-25.85 26.07-12.33 7.2594-27.52 12.849-43.414 15.977-13.156 2.5886-40.699 2.7834-54.34 0.38281-26.868-4.7284-51.319-16.64-64.221-31.285-9.7454-11.063-15.118-27.614-12.701-39.135 2.9882-14.247 13.914-28.867 28.578-38.244 20.394-13.041 48.432-19.548 76.254-19.191zm-477.67 178.13c-1.0856 0.047-1.2291 0.99248-1.6387 3.1758-0.69038 3.68 5.7429 34.995 8.1797 39.818 1.7422 3.4483 6.8783 7.3513 11.365 8.6348 2.2807 0.65257 58.367 0.94245 161 0.83398 86.723-0.0916 125.72-0.15559 143.96-0.5293 17.309 0.43165 69.677 0.61867 154.23 0.5293 152.28-0.16089 157.63-0.22863 161.31-2.0566 6.8315-3.3933 8.6198-6.9835 12.91-25.914 3.4654-15.29 4.1936-22.619 2.4219-24.391-0.24639-0.24638-2.5628 0.2693-5.1465 1.1465-4.2253 1.4343-21.618 1.5984-172.94 1.6211-82.192 0.0129-125.53 0.71127-149.2 1.1152-21.726-0.39498-63.616-1.128-149-1.1152-148.72 0.02343-168.75-0.15092-172.65-1.5078-2.5546-0.88957-3.9701-1.3979-4.8145-1.3613zm97.529 16.342c7.9186 0.20579 15.679 5.1315 13.988 11.869-0.35354 1.4086-1.7516 3.2867-3.1055 4.1738-11.677 7.6513-31.193-2.9924-22.121-12.064 2.8994-2.8994 7.0905-4.0863 11.238-3.9785zm298.2 0c7.9186 0.20579 15.679 5.1315 13.988 11.869-0.35354 1.4086-1.7497 3.2867-3.1035 4.1738-11.677 7.6513-31.195-2.9924-22.123-12.064 2.8994-2.8994 7.0905-4.0863 11.238-3.9785zm-137.74 0.43164c2.8883-0.0101 5.6019 0.3999 7.1328 1.2734 3.2387 1.848 5.7122 4.9777 5.75 7.2773 0.0418 2.5498-2.4002 6.0929-5.2695 7.6484-4.7385 2.5689-10.483 2.6487-15.732 0.21679-8.3-3.8455-9.0359-9.942-1.7363-14.393 2.1402-1.3048 6.1419-2.0104 9.8555-2.0234zm298.2 0c2.8883-0.0101 5.6038 0.3999 7.1348 1.2734 3.2387 1.848 5.7102 4.9777 5.748 7.2773 0.0418 2.5498-2.3983 6.0929-5.2676 7.6484-4.7384 2.5689-10.485 2.6487-15.734 0.21679-8.3-3.8455-9.0339-9.942-1.7344-14.393 2.1401-1.3048 6.1399-2.0104 9.8535-2.0234zm-378.78 0.0234c5.2258 0 8.6997 1.1997 11.459 3.959 4.3671 4.3671 1.3214 10.952-6.043 13.064-9.1602 2.6271-18.916-1.5311-18.916-8.0625 0-5.3042 5.5092-8.9609 13.5-8.9609zm298.2 0c5.2258 0 8.7016 1.1997 11.461 3.959 4.367 4.3671 1.3194 10.952-6.0449 13.064-9.1601 2.6271-18.916-1.5311-18.916-8.0625 0-5.3042 5.5092-8.9609 13.5-8.9609z"/>
 </g>
</svg>
